<mxfile host="app.diagrams.net" modified="2022-10-09T03:18:59.673Z" agent="5.0 (Windows NT 10.0; Win64; x64) AppleWebKit/537.36 (KHTML, like Gecko) Chrome/105.0.0.0 Safari/537.36" etag="e0pOhCUgAYHuTfYY877e" version="20.3.7" type="github">
  <diagram id="_lDVWyqWir9IVjg8z47l" name="第 1 页">
    <mxGraphModel dx="1550" dy="835" grid="1" gridSize="10" guides="1" tooltips="1" connect="1" arrows="1" fold="1" page="1" pageScale="1" pageWidth="827" pageHeight="1169" math="0" shadow="0">
      <root>
        <mxCell id="0" />
        <mxCell id="1" parent="0" />
        <mxCell id="cw_tltRiTGZEPLa1z0Ei-11" style="edgeStyle=orthogonalEdgeStyle;rounded=0;orthogonalLoop=1;jettySize=auto;html=1;" edge="1" parent="1" source="cw_tltRiTGZEPLa1z0Ei-1" target="cw_tltRiTGZEPLa1z0Ei-7">
          <mxGeometry relative="1" as="geometry" />
        </mxCell>
        <mxCell id="cw_tltRiTGZEPLa1z0Ei-1" value="&lt;h1&gt;&lt;br&gt;&lt;/h1&gt;" style="rounded=0;whiteSpace=wrap;html=1;fillColor=#dae8fc;strokeColor=#6c8ebf;fontStyle=1" vertex="1" parent="1">
          <mxGeometry x="54" y="70" width="606" height="150" as="geometry" />
        </mxCell>
        <mxCell id="cw_tltRiTGZEPLa1z0Ei-2" value="客户端" style="rounded=0;whiteSpace=wrap;html=1;" vertex="1" parent="1">
          <mxGeometry x="130" y="115" width="120" height="60" as="geometry" />
        </mxCell>
        <mxCell id="cw_tltRiTGZEPLa1z0Ei-3" value="客户端" style="rounded=0;whiteSpace=wrap;html=1;" vertex="1" parent="1">
          <mxGeometry x="294" y="115" width="120" height="60" as="geometry" />
        </mxCell>
        <mxCell id="cw_tltRiTGZEPLa1z0Ei-4" value="客户端" style="rounded=0;whiteSpace=wrap;html=1;" vertex="1" parent="1">
          <mxGeometry x="480" y="115" width="120" height="60" as="geometry" />
        </mxCell>
        <mxCell id="cw_tltRiTGZEPLa1z0Ei-17" style="rounded=0;orthogonalLoop=1;jettySize=auto;html=1;exitX=0.25;exitY=1;exitDx=0;exitDy=0;" edge="1" parent="1" source="cw_tltRiTGZEPLa1z0Ei-5" target="cw_tltRiTGZEPLa1z0Ei-14">
          <mxGeometry relative="1" as="geometry" />
        </mxCell>
        <mxCell id="cw_tltRiTGZEPLa1z0Ei-18" style="edgeStyle=none;rounded=0;orthogonalLoop=1;jettySize=auto;html=1;exitX=0.75;exitY=1;exitDx=0;exitDy=0;entryX=0.5;entryY=0;entryDx=0;entryDy=0;" edge="1" parent="1" source="cw_tltRiTGZEPLa1z0Ei-5" target="cw_tltRiTGZEPLa1z0Ei-13">
          <mxGeometry relative="1" as="geometry" />
        </mxCell>
        <mxCell id="cw_tltRiTGZEPLa1z0Ei-5" value="" style="rounded=0;whiteSpace=wrap;html=1;fontFamily=Helvetica;fillColor=#fff2cc;strokeColor=#d6b656;" vertex="1" parent="1">
          <mxGeometry x="57" y="360" width="600" height="110" as="geometry" />
        </mxCell>
        <mxCell id="cw_tltRiTGZEPLa1z0Ei-6" value="家园订单服务" style="rounded=0;whiteSpace=wrap;html=1;fontFamily=Helvetica;" vertex="1" parent="1">
          <mxGeometry x="294" y="385" width="120" height="60" as="geometry" />
        </mxCell>
        <mxCell id="cw_tltRiTGZEPLa1z0Ei-12" style="edgeStyle=orthogonalEdgeStyle;rounded=0;orthogonalLoop=1;jettySize=auto;html=1;entryX=0.5;entryY=0;entryDx=0;entryDy=0;" edge="1" parent="1" source="cw_tltRiTGZEPLa1z0Ei-7" target="cw_tltRiTGZEPLa1z0Ei-5">
          <mxGeometry relative="1" as="geometry" />
        </mxCell>
        <mxCell id="cw_tltRiTGZEPLa1z0Ei-7" value="" style="rounded=0;whiteSpace=wrap;html=1;fontFamily=Helvetica;fillColor=#e1d5e7;strokeColor=#9673a6;" vertex="1" parent="1">
          <mxGeometry x="54" y="260" width="606" height="60" as="geometry" />
        </mxCell>
        <mxCell id="cw_tltRiTGZEPLa1z0Ei-8" value="gateway" style="rounded=0;whiteSpace=wrap;html=1;fontFamily=Helvetica;" vertex="1" parent="1">
          <mxGeometry x="321" y="270" width="66" height="40" as="geometry" />
        </mxCell>
        <mxCell id="cw_tltRiTGZEPLa1z0Ei-9" value="餐厅订单服务" style="rounded=0;whiteSpace=wrap;html=1;fontFamily=Helvetica;" vertex="1" parent="1">
          <mxGeometry x="130" y="385" width="120" height="60" as="geometry" />
        </mxCell>
        <mxCell id="cw_tltRiTGZEPLa1z0Ei-10" value="小镇订单服务" style="rounded=0;whiteSpace=wrap;html=1;fontFamily=Helvetica;" vertex="1" parent="1">
          <mxGeometry x="480" y="385" width="120" height="60" as="geometry" />
        </mxCell>
        <mxCell id="cw_tltRiTGZEPLa1z0Ei-13" value="home背包服务" style="rounded=0;whiteSpace=wrap;html=1;fillColor=#fad9d5;strokeColor=#ae4132;" vertex="1" parent="1">
          <mxGeometry x="384" y="520" width="273" height="60" as="geometry" />
        </mxCell>
        <mxCell id="cw_tltRiTGZEPLa1z0Ei-14" value="online 背包服务" style="rounded=0;whiteSpace=wrap;html=1;fillColor=#d0cee2;strokeColor=#56517e;" vertex="1" parent="1">
          <mxGeometry x="57" y="520" width="283" height="60" as="geometry" />
        </mxCell>
      </root>
    </mxGraphModel>
  </diagram>
</mxfile>
